HIERARCHY
ROOT Hips
{
  OFFSET 5.80788e-005 67.184 3.4734
  CHANNELS 6 Xposition Yposition Zposition Zrotation Xrotation Yrotation
  JOINT Chest
  {
    OFFSET 0 8.7983 -4.7612
    CHANNELS 6 Xposition Yposition Zposition Zrotation Xrotation Yrotation
    JOINT Chest2
    {
      OFFSET 0 8.0291 0.4195
      CHANNELS 6 Xposition Yposition Zposition Zrotation Xrotation Yrotation
      JOINT Chest3
      {
        OFFSET 0 9.9351 -2.2114
        CHANNELS 6 Xposition Yposition Zposition Zrotation Xrotation Yrotation
        JOINT Neck
        {
          OFFSET 0 22.3885 -0.4656
          CHANNELS 6 Xposition Yposition Zposition Zrotation Xrotation Yrotation
          JOINT Head
          {
            OFFSET -0.0001 12.643 3.4389
            CHANNELS 6 Xposition Yposition Zposition Zrotation Xrotation Yrotation
            End Site
            {
              OFFSET 0.0001 17.6655 0.5274
            }
          }
        }
        JOINT LeftCollar
        {
          OFFSET 2.2603 21.606 7.4023
          CHANNELS 6 Xposition Yposition Zposition Zrotation Xrotation Yrotation
          JOINT LeftShoulder
          {
            OFFSET 13.5163 -1.1332 -5.0146
            CHANNELS 6 Xposition Yposition Zposition Zrotation Xrotation Yrotation
            JOINT LeftElbow
            {
              OFFSET -0.0995 -28.05 -0.2431
              CHANNELS 6 Xposition Yposition Zposition Zrotation Xrotation Yrotation
              JOINT LeftWrist
              {
                OFFSET 0.0679 -23.3996 -0.1402
                CHANNELS 6 Xposition Yposition Zposition Zrotation Xrotation Yrotation
                JOINT LeftFinger1
                {
                  OFFSET 0.7932 -9.069 2.5189
                  CHANNELS 6 Xposition Yposition Zposition Zrotation Xrotation Yrotation
                  JOINT LeftFinger11
                  {
                    OFFSET -0.8272 -3.3923 0.5977
                    CHANNELS 6 Xposition Yposition Zposition Zrotation Xrotation Yrotation
                    JOINT LeftFinger12
                    {
                      OFFSET -0.5649 -2.3158 0.4082
                      CHANNELS 6 Xposition Yposition Zposition Zrotation Xrotation Yrotation
                      End Site
                      {
                        OFFSET -0.4919 -1.6479 0.2673
                      }
                    }
                  }
                }
                JOINT LeftFinger2
                {
                  OFFSET 0.9159 -9.2044 0.2193
                  CHANNELS 6 Xposition Yposition Zposition Zrotation Xrotation Yrotation
                  JOINT LeftFinger21
                  {
                    OFFSET 0.0117 -4.1944 -0.0248
                    CHANNELS 6 Xposition Yposition Zposition Zrotation Xrotation Yrotation
                    JOINT LeftFinger22
                    {
                      OFFSET 0.0071 -2.3249 -0.0142
                      CHANNELS 6 Xposition Yposition Zposition Zrotation Xrotation Yrotation
                      End Site
                      {
                        OFFSET -0.1475 -2.0882 0.0028
                      }
                    }
                  }
                }
                JOINT LeftFinger3
                {
                  OFFSET 0.6113 -8.7231 -2.0637
                  CHANNELS 6 Xposition Yposition Zposition Zrotation Xrotation Yrotation
                  JOINT LeftFinger31
                  {
                    OFFSET -0.1927 -3.8059 -0.2383
                    CHANNELS 6 Xposition Yposition Zposition Zrotation Xrotation Yrotation
                    JOINT LeftFinger32
                    {
                      OFFSET -0.1091 -2.1688 -0.1362
                      CHANNELS 6 Xposition Yposition Zposition Zrotation Xrotation Yrotation
                      End Site
                      {
                        OFFSET -0.2358 -1.9176 -0.0906
                      }
                    }
                  }
                }
                JOINT LeftFinger4
                {
                  OFFSET -0.6151 -8.0947 -3.5641
                  CHANNELS 6 Xposition Yposition Zposition Zrotation Xrotation Yrotation
                  JOINT LeftFinger41
                  {
                    OFFSET -0.4882 -2.341 -0.6462
                    CHANNELS 6 Xposition Yposition Zposition Zrotation Xrotation Yrotation
                    JOINT LeftFinger42
                    {
                      OFFSET -0.3575 -1.7167 -0.4742
                      CHANNELS 6 Xposition Yposition Zposition Zrotation Xrotation Yrotation
                      End Site
                      {
                        OFFSET -0.4187 -1.5237 -0.3496
                      }
                    }
                  }
                }
                JOINT LeftFinger0
                {
                  OFFSET -1.42 -1.8761 1.4223
                  CHANNELS 6 Xposition Yposition Zposition Zrotation Xrotation Yrotation
                  JOINT LeftFinger01
                  {
                    OFFSET -1.1471 -3.4929 2.6334
                    CHANNELS 6 Xposition Yposition Zposition Zrotation Xrotation Yrotation
                    JOINT LeftFinger02
                    {
                      OFFSET -0.823 -2.3 1.6571
                      CHANNELS 6 Xposition Yposition Zposition Zrotation Xrotation Yrotation
                      End Site
                      {
                        OFFSET -0.5822 -1.6914 1.1582
                      }
                    }
                  }
                }
              }
            }
          }
        }
        JOINT RightCollar
        {
          OFFSET -2.2603 21.606 7.4023
          CHANNELS 6 Xposition Yposition Zposition Zrotation Xrotation Yrotation
          JOINT RightShoulder
          {
            OFFSET -13.5187 -1.1334 -5.0155
            CHANNELS 6 Xposition Yposition Zposition Zrotation Xrotation Yrotation
            JOINT RightElbow
            {
              OFFSET 0.0994 -28.0499 -0.2431
              CHANNELS 6 Xposition Yposition Zposition Zrotation Xrotation Yrotation
              JOINT RightWrist
              {
                OFFSET -0.0679 -23.3996 -0.1402
                CHANNELS 6 Xposition Yposition Zposition Zrotation Xrotation Yrotation
                JOINT RightFinger1
                {
                  OFFSET -0.7932 -9.0691 2.5189
                  CHANNELS 6 Xposition Yposition Zposition Zrotation Xrotation Yrotation
                  JOINT RightFinger11
                  {
                    OFFSET 0.8272 -3.3923 0.5977
                    CHANNELS 6 Xposition Yposition Zposition Zrotation Xrotation Yrotation
                    JOINT RightFinger12
                    {
                      OFFSET 0.565 -2.3158 0.4082
                      CHANNELS 6 Xposition Yposition Zposition Zrotation Xrotation Yrotation
                      End Site
                      {
                        OFFSET 0.4919 -1.6479 0.2673
                      }
                    }
                  }
                }
                JOINT RightFinger2
                {
                  OFFSET -0.916 -9.2044 0.2193
                  CHANNELS 6 Xposition Yposition Zposition Zrotation Xrotation Yrotation
                  JOINT RightFinger21
                  {
                    OFFSET -0.0117 -4.1944 -0.0248
                    CHANNELS 6 Xposition Yposition Zposition Zrotation Xrotation Yrotation
                    JOINT RightFinger22
                    {
                      OFFSET -0.0071 -2.3249 -0.0142
                      CHANNELS 6 Xposition Yposition Zposition Zrotation Xrotation Yrotation
                      End Site
                      {
                        OFFSET 0.1475 -2.0882 0.0028
                      }
                    }
                  }
                }
                JOINT RightFinger3
                {
                  OFFSET -0.6113 -8.7231 -2.0637
                  CHANNELS 6 Xposition Yposition Zposition Zrotation Xrotation Yrotation
                  JOINT RightFinger31
                  {
                    OFFSET 0.1927 -3.8059 -0.2383
                    CHANNELS 6 Xposition Yposition Zposition Zrotation Xrotation Yrotation
                    JOINT RightFinger32
                    {
                      OFFSET 0.1091 -2.1688 -0.1362
                      CHANNELS 6 Xposition Yposition Zposition Zrotation Xrotation Yrotation
                      End Site
                      {
                        OFFSET 0.2358 -1.9176 -0.0906
                      }
                    }
                  }
                }
                JOINT RightFinger4
                {
                  OFFSET 0.6151 -8.0947 -3.564
                  CHANNELS 6 Xposition Yposition Zposition Zrotation Xrotation Yrotation
                  JOINT RightFinger41
                  {
                    OFFSET 0.4882 -2.341 -0.6462
                    CHANNELS 6 Xposition Yposition Zposition Zrotation Xrotation Yrotation
                    JOINT RightFinger42
                    {
                      OFFSET 0.3574 -1.7166 -0.4742
                      CHANNELS 6 Xposition Yposition Zposition Zrotation Xrotation Yrotation
                      End Site
                      {
                        OFFSET 0.4187 -1.5237 -0.3496
                      }
                    }
                  }
                }
                JOINT RightFinger0
                {
                  OFFSET 1.4199 -1.8761 1.4221
                  CHANNELS 6 Xposition Yposition Zposition Zrotation Xrotation Yrotation
                  JOINT RightFinger01
                  {
                    OFFSET 1.1472 -3.4929 2.6336
                    CHANNELS 6 Xposition Yposition Zposition Zrotation Xrotation Yrotation
                    JOINT RightFinger02
                    {
                      OFFSET 0.8229 -2.3 1.6571
                      CHANNELS 6 Xposition Yposition Zposition Zrotation Xrotation Yrotation
                      End Site
                      {
                        OFFSET 0.5822 -1.6914 1.1582
                      }
                    }
                  }
                }
              }
            }
          }
        }
      }
    }
  }
  JOINT RightHip
  {
    OFFSET -9.412 3.9771 -0.7758
    CHANNELS 6 Xposition Yposition Zposition Zrotation Xrotation Yrotation
    JOINT RightKnee
    {
      OFFSET -0.7531 -40.938 0
      CHANNELS 6 Xposition Yposition Zposition Zrotation Xrotation Yrotation
      JOINT RightAnkle
      {
        OFFSET 0 -40.1986 0
        CHANNELS 6 Xposition Yposition Zposition Zrotation Xrotation Yrotation
        JOINT RightToe
        {
          OFFSET 0 -4.4182 9.239
          CHANNELS 6 Xposition Yposition Zposition Zrotation Xrotation Yrotation
          End Site
          {
            OFFSET 0 0 6.1981
          }
        }
      }
    }
  }
  JOINT LeftHip
  {
    OFFSET 9.4119 3.9773 -0.7758
    CHANNELS 6 Xposition Yposition Zposition Zrotation Xrotation Yrotation
    JOINT LeftKnee
    {
      OFFSET 0.7532 -40.9383 0
      CHANNELS 6 Xposition Yposition Zposition Zrotation Xrotation Yrotation
      JOINT LeftAnkle
      {
        OFFSET 0 -40.1986 0
        CHANNELS 6 Xposition Yposition Zposition Zrotation Xrotation Yrotation
        JOINT LeftToe
        {
          OFFSET 0 -4.4182 9.239
          CHANNELS 6 Xposition Yposition Zposition Zrotation Xrotation Yrotation
          End Site
          {
            OFFSET 0 0 6.1981
          }
        }
      }
    }
  }
}
MOTION
Frames:	4
Frame Time:	0.0333333
5.80788e-005 67.184 3.4734 0 0 -0 0 8.7983 -4.7612 0 0 -0 0 8.0291 0.4195 0 0 -0 0 9.9351 -2.2114 0 0 -0 0 22.3885 -0.4656 0 0 -0 -0.0001 12.643 3.4389 0 0 -0 2.2603 21.606 7.4023 0 0 -12.5014 13.5163 -1.1332 -5.0146 88.1196 14.2451 10.6914 -0.0995 -28.05 -0.2431 -0.00160068 -0.00239207 0.000740045 0.0679 -23.3996 -0.1402 -8.4365e-005 7.00714e-005 -9.52055e-007 0.7932 -9.069 2.5189 9.93923e-017 -1.98785e-016 -1.59028e-015 -0.8272 -3.3923 0.5977 9.93923e-017 -5.96354e-016 -1.59028e-015 -0.5649 -2.3158 0.4082 -9.93923e-017 -5.96354e-016 -1.59028e-015 0.9159 -9.2044 0.2193 9.93923e-017 -1.98785e-016 -1.59028e-015 0.0117 -4.1944 -0.0248 -0.0128176 0.00232552 8.52707e-005 0.0071 -2.3249 -0.0142 9.93923e-017 5.96354e-016 -0 0.6113 -8.7231 -2.0637 9.93923e-017 -1.98785e-016 -1.59028e-015 -0.1927 -3.8059 -0.2383 -0.0160551 0.00299681 0.000857156 -0.1091 -2.1688 -0.1362 -2.48481e-016 0 3.18055e-015 -0.6151 -8.0947 -3.5641 9.93923e-017 -1.98785e-016 -1.59028e-015 -0.4882 -2.341 -0.6462 -0.0125865 0.0031206 0.00282719 -0.3575 -1.7167 -0.4742 0 1.98785e-016 -0 -1.42 -1.8761 1.4223 9.93923e-017 -1.98785e-016 -1.59028e-015 -1.1471 -3.4929 2.6334 9.93923e-017 -5.96354e-016 -1.59028e-015 -0.823 -2.3 1.6571 -9.93923e-017 -5.96354e-016 -1.59028e-015 -2.2603 21.606 7.4023 -0.865644 0.16582 7.03859 -13.5187 -1.1334 -5.0155 -88.0329 10.2057 -10.5567 0.0994 -28.0499 -0.2431 0.0015593 -0.00248883 -0.000788628 -0.0679 -23.3996 -0.1402 7.87605e-005 4.10553e-005 1.24965e-005 -0.7932 -9.0691 2.5189 -3.97569e-016 -7.95139e-016 3.18055e-015 0.8272 -3.3923 0.5977 -1.98785e-016 -3.97569e-016 3.18055e-015 0.565 -2.3158 0.4082 -1.98785e-016 0 3.18055e-015 -0.916 -9.2044 0.2193 -3.97569e-016 -7.95139e-016 3.18055e-015 -0.0117 -4.1944 -0.0248 0.0129473 0.00231697 -8.70038e-005 -0.0071 -2.3249 -0.0142 9.93923e-017 -7.95139e-016 1.59028e-015 -0.6113 -8.7231 -2.0637 -3.97569e-016 -7.95139e-016 3.18055e-015 0.1927 -3.8059 -0.2383 0.0163314 0.00303369 -0.000872333 0.1091 -2.1688 -0.1362 3.97569e-016 7.95139e-016 -3.18055e-015 0.6151 -8.0947 -3.564 -3.97569e-016 -7.95139e-016 3.18055e-015 0.4882 -2.341 -0.6462 0.0145763 0.00367772 -0.00326275 0.3574 -1.7166 -0.4742 9.93923e-017 -3.97569e-016 -0 1.4199 -1.8761 1.4221 -3.97569e-016 -7.95139e-016 3.18055e-015 1.1472 -3.4929 2.6336 -1.98785e-016 -3.97569e-016 3.18055e-015 0.8229 -2.3 1.6571 -1.98785e-016 0 3.18055e-015 -9.412 3.9771 -0.7758 3.42485 1.36937 -0.0640303 -0.7531 -40.938 0 0.000136572 0.69354 0.00145564 1.77636e-015 -40.1986 -1.11022e-016 -3.42573 -2.06297 -0.0607933 8.88178e-016 -4.4182 9.239 -3.19502e-024 0 -1.48106e-024 9.4119 3.9773 -0.7758 -3.42498 1.36123 0.0639712 0.7532 -40.9383 2.22045e-016 -6.769e-005 0.712612 -0.0012277 8.88179e-016 -40.1986 0 3.42582 -2.07388 0.0612819 -8.88178e-016 -4.4182 9.239 2.55305e-023 0 -2.31416e-026 
-0.00058608 0.631554 -6.87578 -2.01627e-008 75.5707 9.0977e-009 0 8.7983 -4.7612 -0.347688 4.01194 -0.0447343 1.04083e-017 8.0291 0.4195 -0.694791 8.02404 -0.0652336 0 9.9351 -2.2114 -0.694792 8.02406 -0.0652336 -2.22045e-016 22.3885 -0.4656 0.175283 -25.6568 0.103668 -0.0001 12.643 3.4389 0.0677108 -23.7568 0.0269601 2.2603 21.606 7.4023 -8.50282 -0.206556 -12.5014 13.5163 -1.1332 -5.0146 40.1723 -58.4494 49.8507 -0.0995 -28.05 -0.2431 -166.594 -49.7852 148.267 0.0679 -23.3996 -0.1402 -7.02775 1.5168 -7.79066 0.7932 -9.069 2.5189 3.97569e-016 -9.93923e-017 -1.21134e-015 -0.8272 -3.3923 0.5977 3.41212e-006 3.42483e-006 -4.60767e-008 -0.5649 -2.3158 0.4082 3.44825e-006 -5.40185e-006 -6.17782e-006 0.9159 -9.2044 0.2193 3.97569e-016 -9.93923e-017 -1.21134e-015 0.0117 -4.1944 -0.0248 -0.0128183 0.00232594 8.5041e-005 0.0071 -2.3249 -0.0142 -1.70608e-006 -7.98714e-009 2.29692e-008 0.6113 -8.7231 -2.0637 3.97569e-016 -9.93923e-017 -1.21134e-015 -0.1927 -3.8059 -0.2383 -0.0160358 0.00298511 0.000859434 -0.1091 -2.1688 -0.1362 3.13125e-006 8.47681e-006 -3.05346e-006 -0.6151 -8.0947 -3.5641 3.97569e-016 -9.93923e-017 -1.21134e-015 -0.4882 -2.341 -0.6462 -0.0126068 0.00312555 0.00282232 -0.3575 -1.7167 -0.4742 3.07717e-006 1.57167e-005 6.14372e-006 -1.42 -1.8761 1.4223 3.97569e-016 -9.93923e-017 -1.21134e-015 -1.1471 -3.4929 2.6334 3.41212e-006 3.42483e-006 -4.60767e-008 -0.823 -2.3 1.6571 3.44825e-006 -5.40185e-006 -6.17782e-006 -2.2603 21.606 7.4023 7.63346 -0.0409783 7.03546 -13.5187 -1.1334 -5.0155 -31.7793 -60.3064 -41.0798 0.0994 -28.0499 -0.2431 170.377 -49.11 -145.815 -0.0679 -23.3996 -0.1402 6.85761 1.36391 7.97382 -0.7932 -9.0691 2.5189 9.93923e-016 -3.97569e-016 3.04389e-015 0.8272 -3.3923 0.5977 -1.70503e-006 1.70532e-006 7.6256e-008 0.565 -2.3158 0.4082 9.13817e-033 3.97569e-016 -1.31695e-015 -0.916 -9.2044 0.2193 9.93923e-016 -3.97569e-016 3.04389e-015 -0.0117 -4.1944 -0.0248 0.0129581 0.00231785 -8.61387e-005 -0.0071 -2.3249 -0.0142 -3.25039e-006 1.7656e-006 1.60915e-006 -0.6113 -8.7231 -2.0637 9.93923e-016 -3.97569e-016 3.04389e-015 0.1927 -3.8059 -0.2383 0.0163346 0.0030308 -0.000869328 0.1091 -2.1688 -0.1362 -3.4101e-006 3.3761e-006 1.52333e-007 0.6151 -8.0947 -3.564 9.93923e-016 -3.97569e-016 3.04389e-015 0.4882 -2.341 -0.6462 0.0146153 0.00369108 -0.00326577 0.3574 -1.7166 -0.4742 3.97569e-016 0 2.60905e-015 1.4199 -1.8761 1.4221 9.93923e-016 -3.97569e-016 3.04389e-015 1.1472 -3.4929 2.6336 -1.70503e-006 1.70532e-006 7.6256e-008 0.8229 -2.3 1.6571 9.13817e-033 3.97569e-016 -1.31695e-015 -9.412 3.9771 -0.7758 -108.422 -29.6533 -91.8677 -0.7531 -40.938 3.55271e-015 177.226 35.1484 176.656 -3.9968e-015 -40.1986 0 -6.38917 11.0509 -4.21094 -1.11022e-015 -4.4182 9.239 -1.56214e-005 -7.60367e-006 1.63889e-005 9.4119 3.9773 -0.7758 108.391 -29.7412 91.8349 0.7532 -40.9383 -8.88178e-016 -177.141 35.2064 -176.7 -1.77636e-015 -40.1986 7.10543e-015 6.41081 10.4821 4.19237 2.22045e-016 -4.4182 9.239 7.95139e-016 0 -2.38542e-015 
-0.000471585 4.27012 -6.49518 2.04844e-008 71.6205 -7.32462e-008 -5.42101e-020 8.7983 -4.7612 -0.323413 3.65076 -0.0494824 0 8.0291 0.4195 -0.645633 7.30169 -0.0785059 0 9.9351 -2.2114 -0.645633 7.30171 -0.0785055 -5.55112e-017 22.3885 -0.4656 0.792579 -24.6916 0.473079 -0.0001 12.643 3.4389 0.538363 -22.4226 0.216257 2.2603 21.606 7.4023 -8.00265 -0.194531 -12.5014 13.5163 -1.1332 -5.0146 41.0907 -54.0593 46.1147 -0.0995 -28.05 -0.2431 -162.624 -57.0654 154.779 0.0679 -23.3996 -0.1402 -6.61521 1.42845 -7.33668 0.7932 -9.069 2.5189 -6.06644e-006 -2.07045e-006 -6.94581e-006 -0.8272 -3.3923 0.5977 -5.17255e-033 7.95139e-016 3.72721e-016 -0.5649 -2.3158 0.4082 -7.95139e-016 -7.95139e-016 3.52843e-015 0.9159 -9.2044 0.2193 -6.06644e-006 -2.07045e-006 -6.94581e-006 0.0117 -4.1944 -0.0248 -0.0128136 0.00233417 9.18645e-005 0.0071 -2.3249 -0.0142 -1.59028e-015 -1.59028e-015 -3.926e-015 0.6113 -8.7231 -2.0637 -6.06644e-006 -2.07045e-006 -6.94581e-006 -0.1927 -3.8059 -0.2383 -0.016007 0.00298452 0.000858725 -0.1091 -2.1688 -0.1362 1.70031e-006 1.84484e-006 -7.53445e-008 -0.6151 -8.0947 -3.5641 -6.06644e-006 -2.07045e-006 -6.94581e-006 -0.4882 -2.341 -0.6462 -0.0125911 0.0031316 0.00283295 -0.3575 -1.7167 -0.4742 2.5979e-006 -7.13425e-006 -9.02333e-006 -1.42 -1.8761 1.4223 -6.06644e-006 -2.07045e-006 -6.94581e-006 -1.1471 -3.4929 2.6334 -5.17255e-033 7.95139e-016 3.72721e-016 -0.823 -2.3 1.6571 -7.95139e-016 -7.95139e-016 3.52843e-015 -2.2603 21.606 7.4023 7.13353 -0.0289083 7.03566 -13.5187 -1.1334 -5.0155 -34.1402 -56.0263 -38.6238 0.0994 -28.0499 -0.2431 166.972 -56.5747 -151.635 -0.0679 -23.3996 -0.1402 6.45464 1.28461 7.50888 -0.7932 -9.0691 2.5189 -7.95139e-016 7.95139e-016 -1.2424e-015 0.8272 -3.3923 0.5977 -7.95139e-016 0 -4.42296e-015 0.565 -2.3158 0.4082 -7.95139e-016 -7.95139e-016 -7.45443e-015 -0.916 -9.2044 0.2193 -7.95139e-016 7.95139e-016 -1.2424e-015 -0.0117 -4.1944 -0.0248 0.0129313 0.00231474 -8.80598e-005 -0.0071 -2.3249 -0.0142 -4.55184e-032 -7.95139e-016 -3.27995e-015 -0.6113 -8.7231 -2.0637 -7.95139e-016 7.95139e-016 -1.2424e-015 0.1927 -3.8059 -0.2383 0.0163198 0.00301245 -0.00086903 0.1091 -2.1688 -0.1362 -7.95139e-016 -1.59028e-015 8.44835e-016 0.6151 -8.0947 -3.564 -7.95139e-016 7.95139e-016 -1.2424e-015 0.4882 -2.341 -0.6462 0.0145899 0.00366018 -0.00326425 0.3574 -1.7166 -0.4742 -1.59028e-015 -1.59028e-015 -1.11319e-014 1.4199 -1.8761 1.4221 -7.95139e-016 7.95139e-016 -1.2424e-015 1.1472 -3.4929 2.6336 -7.95139e-016 0 -4.42296e-015 0.8229 -2.3 1.6571 -7.95139e-016 -7.95139e-016 -7.45443e-015 -9.412 3.9771 -0.7758 -101.821 -32.22 -87.4301 -0.7531 -40.938 -4.44089e-015 176.962 43.2777 177.814 -8.88178e-016 -40.1986 0 -6.15418 10.7105 -3.54712 0 -4.4182 9.239 -2.09826e-005 1.55379e-007 -1.00924e-006 9.4119 3.9773 -0.7758 101.791 -32.2961 87.3964 0.7532 -40.9383 1.77636e-015 -176.876 43.3292 -177.858 -1.77636e-015 -40.1986 0 6.16913 10.1958 3.53165 3.55271e-015 -4.4182 9.239 1.32857e-005 5.02674e-006 -3.24289e-006 
-0.000469594 4.31665 -6.5402 8.88549e-010 72.0882 -9.3381e-010 0 8.7983 -4.7612 -0.322967 3.53236 -0.0514752 -1.38778e-017 8.0291 0.4195 -0.64459 7.06492 -0.0831943 -2.77556e-017 9.9351 -2.2114 -0.644592 7.06496 -0.0831941 -2.22045e-016 22.3885 -0.4656 1.39526 -25.2027 0.837235 -0.0001 12.643 3.4389 0.987926 -22.481 0.397494 2.2603 21.606 7.4023 -8.00266 -0.194472 -12.5014 13.5163 -1.1332 -5.0146 41.0907 -54.0593 46.1147 -0.0995 -28.05 -0.2431 -162.624 -57.0654 154.779 0.0679 -23.3996 -0.1402 -6.6152 1.4285 -7.33671 0.7932 -9.069 2.5189 7.95139e-016 -2.78299e-015 2.98177e-016 -0.8272 -3.3923 0.5977 7.95139e-016 -1.19271e-015 5.2181e-016 -0.5649 -2.3158 0.4082 1.70052e-006 -8.7253e-008 -7.72801e-008 0.9159 -9.2044 0.2193 7.95139e-016 -2.78299e-015 2.98177e-016 0.0117 -4.1944 -0.0248 -0.0128273 0.0023208 8.41752e-005 0.0071 -2.3249 -0.0142 1.85714e-006 2.79658e-006 -1.77763e-006 0.6113 -8.7231 -2.0637 7.95139e-016 -2.78299e-015 2.98177e-016 -0.1927 -3.8059 -0.2383 -0.0160477 0.00298768 0.000856583 -0.1091 -2.1688 -0.1362 7.95139e-016 1.59028e-015 -4.79568e-015 -0.6151 -8.0947 -3.5641 7.95139e-016 -2.78299e-015 2.98177e-016 -0.4882 -2.341 -0.6462 -0.0125878 0.00311427 0.00283202 -0.3575 -1.7167 -0.4742 -3.93616e-006 2.68523e-007 -5.76075e-006 -1.42 -1.8761 1.4223 7.95139e-016 -2.78299e-015 2.98177e-016 -1.1471 -3.4929 2.6334 7.95139e-016 -1.19271e-015 5.2181e-016 -0.823 -2.3 1.6571 1.70052e-006 -8.7253e-008 -7.72801e-008 -2.2603 21.606 7.4023 7.13352 -0.0288733 7.03565 -13.5187 -1.1334 -5.0155 -34.1399 -56.0264 -38.6236 0.0994 -28.0499 -0.2431 166.972 -56.5748 -151.635 -0.0679 -23.3996 -0.1402 6.45462 1.28461 7.5089 -0.7932 -9.0691 2.5189 -5.24151e-032 7.95139e-016 3.77691e-015 0.8272 -3.3923 0.5977 1.69681e-006 1.86959e-007 -1.19625e-007 0.565 -2.3158 0.4082 -1.69681e-006 -1.86959e-007 1.19625e-007 -0.916 -9.2044 0.2193 -5.24151e-032 7.95139e-016 3.77691e-015 -0.0117 -4.1944 -0.0248 0.0129545 0.0023167 -8.38917e-005 -0.0071 -2.3249 -0.0142 1.59028e-015 1.59028e-015 2.28602e-015 -0.6113 -8.7231 -2.0637 -5.24151e-032 7.95139e-016 3.77691e-015 0.1927 -3.8059 -0.2383 0.0163215 0.00303362 -0.000872428 0.1091 -2.1688 -0.1362 7.95139e-016 -1.59028e-015 -3.57812e-015 0.6151 -8.0947 -3.564 -5.24151e-032 7.95139e-016 3.77691e-015 0.4882 -2.341 -0.6462 0.0146185 0.00367914 -0.00326656 0.3574 -1.7166 -0.4742 6.38525e-007 -2.42889e-006 -9.08774e-006 1.4199 -1.8761 1.4221 -5.24151e-032 7.95139e-016 3.77691e-015 1.1472 -3.4929 2.6336 1.69681e-006 1.86959e-007 -1.19625e-007 0.8229 -2.3 1.6571 -1.69681e-006 -1.86959e-007 1.19625e-007 -9.412 3.9771 -0.7758 -102.411 -32.0633 -88.0463 -0.7531 -40.938 8.88178e-016 176.962 43.2799 177.808 1.77636e-015 -40.1986 7.10543e-015 -5.79131 10.8494 -3.67866 0 -4.4182 9.239 -1.73985e-006 -9.05644e-007 -3.26806e-006 9.4119 3.9773 -0.7758 102.382 -32.1377 88.0145 0.7532 -40.9383 -2.66453e-015 -176.876 43.3299 -177.851 -1.77636e-015 -40.1986 0 5.80637 10.3514 3.6619 0 -4.4182 9.239 6.02266e-006 7.70427e-006 -5.10519e-006 
